<?xml version="1.0" encoding="UTF-8" standalone="no"?>
<svg width="712px" height="625px" viewBox="0 0 712 625" version="1.1" xmlns="http://www.w3.org/2000/svg" xmlns:xlink="http://www.w3.org/1999/xlink" xmlns:sketch="http://www.bohemiancoding.com/sketch/ns">
    <!-- Generator: Sketch 3.4.4 (17249) - http://www.bohemiancoding.com/sketch -->
    <title>view 1 + View 2</title>
    <desc>Created with Sketch.</desc>
    <defs>
        <linearGradient x1="6.33668364%" y1="39.91125%" x2="84.5110604%" y2="67.70125%" id="linearGradient-1">
            <stop stop-color="#E3ECFB" offset="0%"></stop>
            <stop stop-color="#E6EEFC" offset="3.72611343%"></stop>
            <stop stop-color="#FFFFFF" offset="28.7288612%"></stop>
            <stop stop-color="#E3ECFB" offset="61.4815848%"></stop>
            <stop stop-color="#FFFFFF" offset="74.3263712%"></stop>
            <stop stop-color="#E3ECFB" offset="100%"></stop>
        </linearGradient>
    </defs>
    <g id="Page-1" stroke="none" stroke-width="1" fill="none" fill-rule="evenodd" sketch:type="MSPage">
        <g id="view-1-+-View-2" sketch:type="MSLayerGroup">
            <rect id="view-1" fill="url(#linearGradient-1)" sketch:type="MSShapeGroup" x="0" y="0" width="356" height="625"></rect>
            <g id="View-2" transform="translate(356.000000, 0.000000)">
                <rect id="Rectangle-1" fill="#4A4A4A" sketch:type="MSShapeGroup" x="0" y="0" width="356" height="625"></rect>
                <g id="Calendar" transform="translate(36.000000, 66.000000)">
                    <rect id="Rectangle-21" stroke="#904CA7" fill="#904CA7" sketch:type="MSShapeGroup" x="0" y="0" width="272" height="186" rx="3"></rect>
                    <text id="January" sketch:type="MSTextLayer" font-family="Segoe UI" font-size="18" font-weight="normal" line-spacing="15" letter-spacing="0.835714161" fill="#FFFFFF">
                        <tspan x="104" y="32">January</tspan>
                    </text>
                    <g id="Group" transform="translate(23.000000, 39.000000)" stroke="#F37EF9" fill="#F37EF9" sketch:type="MSShapeGroup">
                        <rect id="Rectangle-48" x="198" y="99" width="28" height="28"></rect>
                        <rect id="Rectangle-47" x="165" y="99" width="28" height="28"></rect>
                        <rect id="Rectangle-46" x="132" y="99" width="28" height="28"></rect>
                        <rect id="Rectangle-45" x="99" y="99" width="28" height="28"></rect>
                        <rect id="Rectangle-44" x="66" y="99" width="28" height="28"></rect>
                        <rect id="Rectangle-43" x="33" y="99" width="28" height="28"></rect>
                        <rect id="Rectangle-42" x="0" y="99" width="28" height="28"></rect>
                        <rect id="Rectangle-41" x="198" y="66" width="28" height="28"></rect>
                        <rect id="Rectangle-40" x="165" y="66" width="28" height="28"></rect>
                        <rect id="Rectangle-39" x="132" y="66" width="28" height="28"></rect>
                        <rect id="Rectangle-38" x="99" y="66" width="28" height="28"></rect>
                        <rect id="Rectangle-37" x="66" y="66" width="28" height="28"></rect>
                        <rect id="Rectangle-36" x="33" y="66" width="28" height="28"></rect>
                        <rect id="Rectangle-35" x="0" y="66" width="28" height="28"></rect>
                        <rect id="Rectangle-34" x="198" y="33" width="28" height="28"></rect>
                        <rect id="Rectangle-33" x="165" y="33" width="28" height="28"></rect>
                        <rect id="Rectangle-32" x="132" y="33" width="28" height="28"></rect>
                        <rect id="Rectangle-31" x="99" y="33" width="28" height="28"></rect>
                        <rect id="Rectangle-30" x="66" y="33" width="28" height="28"></rect>
                        <rect id="Rectangle-29" x="33" y="33" width="28" height="28"></rect>
                        <rect id="Rectangle-28" x="0" y="33" width="28" height="28"></rect>
                        <rect id="Rectangle-27" x="198" y="0" width="28" height="28"></rect>
                        <rect id="Rectangle-26" x="165" y="0" width="28" height="28"></rect>
                        <rect id="Rectangle-25" x="132" y="0" width="28" height="28"></rect>
                        <rect id="Rectangle-24" x="99" y="0" width="28" height="28"></rect>
                        <rect id="Rectangle-23" x="66" y="0" width="28" height="28"></rect>
                        <rect id="Rectangle-22-Copy" x="33" y="0" width="28" height="28"></rect>
                        <rect id="Rectangle-22" x="0" y="0" width="28" height="28"></rect>
                    </g>
                </g>
                <g id="Picture-1-+-Picture-2" transform="translate(30.000000, 468.000000)" sketch:type="MSShapeGroup">
                    <g id="Picture-1">
                        <rect id="Rectangle-7" fill="#F38181" x="0" y="0" width="126" height="73" rx="2"></rect>
                        <circle id="Oval-1" fill="#FCE38A" cx="69" cy="33" r="15"></circle>
                        <rect id="Rectangle-9" fill="#FCE38A" x="43" y="44" width="52" height="29" rx="17"></rect>
                    </g>
                    <g id="Picture-2" transform="translate(173.000000, 22.000000)">
                        <rect id="Rectangle-7" fill="#95E1D3" x="0" y="0" width="126" height="73" rx="2"></rect>
                        <rect id="Rectangle-10" fill="#EAFFD0" x="19" y="39" width="89" height="34" rx="2"></rect>
                        <rect id="Rectangle-11" fill="#EAFFD0" x="78" y="19" width="20" height="32"></rect>
                        <polygon id="Polygon-1" fill="#EAFFD0" points="88 11 97.5105652 18.2553216 93.8778525 29.9946784 82.1221475 29.9946784 78.4894348 18.2553216 "></polygon>
                        <rect id="Rectangle-12" fill="#95E1D3" x="26" y="48" width="6" height="18"></rect>
                        <rect id="Rectangle-12" fill="#95E1D3" x="36" y="48" width="6" height="18"></rect>
                        <rect id="Rectangle-12" fill="#95E1D3" x="46" y="48" width="6" height="18"></rect>
                        <rect id="Rectangle-12" fill="#95E1D3" x="56" y="48" width="6" height="18"></rect>
                        <rect id="Rectangle-12" fill="#95E1D3" x="66" y="48" width="6" height="18"></rect>
                        <rect id="Rectangle-12" fill="#95E1D3" x="76" y="48" width="6" height="18"></rect>
                        <rect id="Rectangle-12" fill="#95E1D3" x="86" y="48" width="6" height="18"></rect>
                        <rect id="Rectangle-12" fill="#95E1D3" x="96" y="48" width="6" height="18"></rect>
                        <rect id="Rectangle-12" fill="#95E1D3" x="86" y="22" width="4" height="11"></rect>
                    </g>
                </g>
                <text id="Remeber-to-get-milk" sketch:type="MSTextLayer" transform="translate(116.500000, 341.416335) rotate(-13.000000) translate(-116.500000, -341.416335) " font-family="Marker Felt" font-size="18" font-weight="normal" line-spacing="15" letter-spacing="0.835714161" fill="#FFFFFF">
                    <tspan x="36" y="349.916335">Remeber to get milk</tspan>
                </text>
                <text id="Susan’s-#" sketch:type="MSTextLayer" transform="translate(244.010788, 398.532865) rotate(-13.000000) translate(-244.010788, -398.532865) " font-family="Marker Felt" font-size="18" font-weight="normal" line-spacing="15" letter-spacing="0.835714161" fill="#FFFFFF">
                    <tspan x="183.510788" y="392.032865">Susan’s #</tspan>
                    <tspan x="192.852788" y="417.128813"></tspan>
                    <tspan x="183.510788" y="422.032865">209-932-1984</tspan>
                </text>
            </g>
        </g>
    </g>
</svg>